# xmcd
#
# Track frame offsets: 
#        150
#        12140
#        28000
#        44012
#        53625
#        65892
#        76632
#        95120
#        108355
#        126297
#        141365
#        157765
#        171417
#        182052
#        197217
#        213957
#        234582
#        250742
#        262965
#        277620
#
# Disc length: 3934 seconds
#
# Revision: 6
# Processed by: cddbd v1.5.2PL0 Copyright (c) Steve Scherf et al.
# Submitted via: ExactAudioCopyFreeDBPlugin 1.0
#
DISCID=150f5c14
DTITLE=Various Artist - Top of the Stax:  Forty Greatest Hits
DYEAR=1991
DGENRE=Soul
TTITLE0=The Mar-Keys - Last Night
TTITLE1=The Staple Singers - Touch a Hand, Make a Friend
TTITLE2=The Soul Children - Hearsay
TTITLE3=Otis Redding - Respect
TTITLE4=Judy Clay and William Bell - Private Number
TTITLE5=Booker T. and the M.G.'s - Soul Limbo
TTITLE6=Johnnie Taylor - Testify ( I Wonna)
TTITLE7=Carla Thomas - I Like What You're Doin' to Me
TTITLE8=Little Milton - Behind Closed Doors
TTITLE9=Rufus Thomas - The Breakdown
TTITLE10=Issac Hayes - Never Can Say Goodbye
TTITLE11=William Bell - You Don't Miss Your Water
TTITLE12=The Bar-Kays - Soul Finger
TTITLE13=The Staple Singers - If You're Ready (Come Go with Me)
TTITLE14=The Temprees - Dedicated to the One I Love
TTITLE15=Johnnie Taylor - I Believe in You (You Believe in Me)
TTITLE16=The Dramatics - Whatcha See is Whatcha Get
TTITLE17=Eddie Floyd - I've Never Found a Girl
TTITLE18=The Emotions - Show Me How
TTITLE19=Albert King - That's What the Blues is All About
EXTD=YEAR: 1991
EXTT0=
EXTT1=
EXTT2=
EXTT3=
EXTT4=
EXTT5=
EXTT6=
EXTT7=
EXTT8=
EXTT9=
EXTT10=
EXTT11=
EXTT12=
EXTT13=
EXTT14=
EXTT15=
EXTT16=
EXTT17=
EXTT18=
EXTT19=
PLAYORDER=
